<svg xmlns="http://www.w3.org/2000/svg" xmlns:xlink="http://www.w3.org/1999/xlink" width="32.75" height="38.938" viewBox="0 0 32.75 38.938">
  <defs>
    <style>
      .cls-1 {
        fill-rule: evenodd;
        fill: url(#linear-gradient);
      }
    </style>
    <linearGradient id="linear-gradient" x1="2.916" y1="0.625" x2="31.084" y2="39.563" gradientUnits="userSpaceOnUse">
      <stop offset="NaN" stop-color="#ff4a7d"/>
      <stop offset="Infinity" stop-color="#d9124f"/>
    </linearGradient>
  </defs>
  <path id="shape" class="cls-1" d="M22.667,0.618H11.333a1.28,1.28,0,0,0-1.261,1.132l-0.01.163V6.358H1.889a1.3,1.3,0,0,0-.159,2.58l0.159,0.01H2.507V32.528a6.993,6.993,0,0,0,6.611,7.028l0.326,0.008H24.556a6.982,6.982,0,0,0,6.93-6.7l0.008-.331V8.949h0.618a1.3,1.3,0,0,0,.159-2.58l-0.159-.01H23.937V1.913A1.287,1.287,0,0,0,22.826.628Zm6.285,8.331V32.528a4.424,4.424,0,0,1-4.137,4.437l-0.258.008H9.444a4.417,4.417,0,0,1-4.388-4.184l-0.007-.261V8.949h23.9ZM13.222,14.012a1.28,1.28,0,0,0-1.261,1.132l-0.01.163V30.615a1.27,1.27,0,0,0,2.532.163l0.01-.163V15.307A1.283,1.283,0,0,0,13.222,14.012Zm7.555,0a1.28,1.28,0,0,0-1.261,1.132l-0.01.163V30.615a1.27,1.27,0,0,0,2.531.163l0.01-.163V15.307A1.283,1.283,0,0,0,20.778,14.012ZM21.4,3.209v3.15H12.6V3.209H21.4Z" transform="translate(-0.625 -0.625)"/>
</svg>
