<svg xmlns="http://www.w3.org/2000/svg" width="20" height="20" viewBox="0 0 20 20">
  <defs>
    <style>
      .cls-1 {
        fill: #fff;
        fill-rule: evenodd;
      }
    </style>
  </defs>
  <path id="CheckIc" class="cls-1" d="M544.328,252a0.988,0.988,0,0,0,.873-0.477l11.572-18.033a1.2,1.2,0,0,0,.227-0.656,0.787,0.787,0,0,0-.825-0.834,0.805,0.805,0,0,0-.765.453l-11.13,17.473-5.63-7.032a0.917,0.917,0,0,0-.789-0.429,0.818,0.818,0,0,0-.861.846,1.08,1.08,0,0,0,.263.656l6.145,7.532A1.08,1.08,0,0,0,544.328,252Z" transform="translate(-537 -232)"/>
</svg>
