<svg xmlns="http://www.w3.org/2000/svg" width="32.75" height="38.938"><defs><linearGradient id="a" x1="2.916" y1=".625" x2="31.084" y2="39.563" gradientUnits="userSpaceOnUse"><stop offset="NaN" stop-color="#ff4a7d"/><stop offset="Infinity" stop-color="#d9124f"/></linearGradient></defs><path d="M22.667.618H11.333a1.28 1.28 0 00-1.261 1.132l-.01.163v4.445H1.889a1.3 1.3 0 00-.159 2.58l.159.01h.618v23.58a6.993 6.993 0 006.611 7.028l.326.008h15.112a6.982 6.982 0 006.93-6.7l.008-.331V8.949h.618a1.3 1.3 0 00.159-2.58l-.159-.01h-8.175V1.913A1.287 1.287 0 0022.826.628zm6.285 8.331v23.579a4.424 4.424 0 01-4.137 4.437l-.258.008H9.444a4.417 4.417 0 01-4.388-4.184l-.007-.261V8.949h23.9zm-15.73 5.063a1.28 1.28 0 00-1.261 1.132l-.01.163v15.308a1.27 1.27 0 002.532.163l.01-.163V15.307a1.283 1.283 0 00-1.271-1.295zm7.555 0a1.28 1.28 0 00-1.261 1.132l-.01.163v15.308a1.27 1.27 0 002.531.163l.01-.163V15.307a1.283 1.283 0 00-1.269-1.295zM21.4 3.209v3.15h-8.8v-3.15h8.8z" transform="translate(-.625 -.625)" fill-rule="evenodd" fill="url(#a)"/></svg>